<svg xmlns="http://www.w3.org/2000/svg" data-name="Layer 1" viewBox="0 0 288 288"><path d="M117.47 77.39c2.27 3.48 4.25 8.87 5.93 16.17l22.64 98.99c.84 3.83 2.04 7.67 3.59 11.5l24.25-106.54c.84-3.95 1.26-7.37 1.26-10.24 0-9.58-4.97-14.37-14.91-14.37V72h28.03v.9c-2.52 0-4.91 2.73-7.19 8.17-2.28 5.45-4.31 12.01-6.11 19.67l-24.25 106c2.39 5.39 4.79 8.08 7.19 8.08l.18.9h-19.76L110.83 94.99c-1.68-6.35-3.53-11.62-5.57-15.81-2.04-4.19-4.13-6.29-6.29-6.29v-.9h7.19c5.27.12 9.04 1.92 11.32 5.39Z" style="fill:#372d34"/><path d="M138.93 170.4c-15.34 3.39-17.36 6.13-19.85 27-2.49-20.87-4.5-23.62-19.85-27 15.34-3.39 17.36-6.13 19.85-27 2.49 20.87 4.5 23.62 19.85 27Z" style="fill:#a680ff"/><path d="M0 0h288v288H0z" style="fill:none"/></svg>