<svg xmlns="http://www.w3.org/2000/svg" id="Layer_2" data-name="Layer 2" viewBox="0 0 341.38 333.71"><defs><style>.cls-1{fill:#372d34}</style></defs><g id="Color_Palette" data-name="Color Palette"><path d="M18.07 22.29c2.14 3.27 3.99 8.33 5.57 15.2l21.27 93.03c.79 3.6 1.91 7.2 3.38 10.81L71.08 41.21c.79-3.71 1.18-6.92 1.18-9.62 0-9-4.67-13.51-14.01-13.51v-.84h26.34v.84c-2.36 0-4.62 2.56-6.75 7.68-2.14 5.12-4.05 11.29-5.74 18.49l-22.79 99.61c2.25 5.06 4.5 7.6 6.75 7.6l.17.84H37.66L11.83 38.83c-1.58-5.96-3.32-10.92-5.23-14.86-1.91-3.94-3.88-5.91-5.91-5.91v-.84h6.75c4.95.11 8.5 1.8 10.64 5.06Zm98.27 56.56h2.53c-8.67-2.14-15.42-5.99-20.26-11.56-4.84-5.57-7.26-12.69-7.26-21.36 0-10.58 3.09-18.46 9.29-23.64 6.19-5.18 14.29-7.77 24.31-7.77 9.45 0 16.71 1.44 21.78 4.31 5.06 2.87 9.45 6.78 13.17 11.73l-3.38 14.69c-3.49-7.88-7.68-14.69-12.58-20.43s-11.23-8.61-18.99-8.61c-6.64 0-11.65 2.53-15.03 7.6-3.38 5.07-5.06 12.44-5.06 22.12 0 10.36 2.39 18.43 7.18 24.23 4.78 5.8 12.24 8.69 22.37 8.69h16.72v11.48h-.85c0-3.82-1.46-6.42-4.39-7.77-2.93-1.35-6.81-2.03-11.65-2.03h-1.35c-7.09 0-12.3 1.01-15.62 3.04-3.32 2.03-5.43 4.81-6.33 8.36-.9 3.55-1.35 8.47-1.35 14.77v18.57c0 7.66.84 13.79 2.53 18.4 1.69 4.62 5.23 6.92 10.64 6.92h9.96c5.06 0 9.43-.56 13.08-1.69 3.66-1.12 6.98-3.74 9.96-7.85 2.98-4.11 5.03-10.38 6.16-18.83h.84l-3.04 30.05H91.34v-.84c2.36 0 4.02-2.56 4.98-7.68.96-5.12 1.44-11.28 1.44-18.49v-22.79c0-15.76 6.19-23.64 18.57-23.64ZM125.11 0h10.13l-12.83 11.99h-1.69L125.11 0Zm46.1 151.45c2.36 0 4.02-2.56 4.98-7.68.96-5.12 1.44-11.28 1.44-18.49V44.23c0-7.2-.48-13.36-1.44-18.49-.96-5.12-2.62-7.68-4.98-7.68v-.84h11.99c4.28 0 9.45-.51 15.53-1.52 4.28-.67 7.48-1.01 9.62-1.01 10.8 0 19.36 3.27 25.66 9.79 6.3 6.53 9.46 15.31 9.46 26.34 0 9.34-1.97 17.14-5.91 23.38-3.94 6.25-9.45 10.5-16.54 12.75l13.84 44.07c4.95 13.62 9.23 20.43 12.83 20.43v.84h-6.58c-4.96-.11-8.64-1.8-11.06-5.07-2.42-3.26-4.76-8.33-7.01-15.2l-18.91-60.11c-.45-1.46-.96-2.45-1.52-2.95-.56-.51-1.24-.76-2.03-.76-1.35 0-2.87 1.27-4.56 3.8-1.69 2.53-3.21 7.4-4.56 14.6-1.35 7.2-2.02 17.22-2.02 30.05v8.61c0 7.2.48 13.37 1.44 18.49.95 5.12 2.62 7.68 4.98 7.68v.84h-24.65v-.84Zm24.73-83.92c2.87-4.61 5.94-6.92 9.2-6.92 2.81 0 5.12 1.13 6.92 3.38 1.8 2.25 3.21 4.9 4.22 7.94l3.21 9.96c3.38-2.7 5.96-6.7 7.77-11.99 1.8-5.29 2.7-11.65 2.7-19.08 0-10.58-1.97-18.97-5.91-25.16-3.94-6.19-9.29-9.29-16.04-9.29-5.74 0-10.27 2.51-13.59 7.51-3.32 5.01-4.98 11.79-4.98 20.34V89.3c1.46-9.9 3.63-17.16 6.5-21.78Z" class="cls-1"/><path d="M240.21 151.94c62.96-1.53 70.48-82.21 77.57-130.41l-1.13 21.03c-4.06 43.64-20.23 114.26-76.44 109.38Z" class="cls-1"/><path d="M266.26 135.57c-7.2-12.83-10.81-29.72-10.81-50.65s3.57-37.79 10.72-50.57c7.15-12.77 17.87-19.16 32.16-19.16s24.14 6.42 31.23 19.25S340.2 64.1 340.2 84.92s-3.55 37.82-10.64 50.65c-7.09 12.83-17.5 19.25-31.23 19.25s-24.88-6.42-32.08-19.25Zm9.88-1.01c4.78 12.38 12.07 18.57 21.87 18.57s16.88-6.19 21.61-18.57c4.73-12.38 7.09-28.93 7.09-49.64s-2.39-37.09-7.18-49.47c-4.79-12.38-11.96-18.57-21.53-18.57s-17.08 6.19-21.87 18.57c-4.79 12.38-7.18 28.87-7.18 49.47s2.39 37.26 7.18 49.64ZM24.3 177.62c2.6 3.21 5.17 8.18 7.71 14.93l33.84 92.23c2.43 5.53 4.31 9.4 5.64 11.61v-97.21c0-7.74-1.02-13.96-3.07-18.66-2.05-4.7-6.44-7.05-13.19-7.05v-.83h24.22v.83c-2.32 0-3.96 2.52-4.89 7.55-.94 5.03-1.41 11.09-1.41 18.16v99.86c2.32 3.65 4.48 5.47 6.47 5.47v.83H61.04l-41.3-112.47c-4.76-11.17-8.68-17.47-11.78-18.91V278.8c0 7.74 1.02 13.96 3.07 18.66 2.05 4.7 6.44 7.05 13.19 7.05v.83H0v-.83c2.32 0 3.95-2.52 4.89-7.55.94-5.03 1.41-11.08 1.41-18.16V172.64h6.47c5.09.11 8.93 1.77 11.53 4.98Zm57.81 126.9c2.32 0 3.95-2.52 4.89-7.55.94-5.03 1.41-11.08 1.41-18.16v-79.62c0-7.08-.47-13.13-1.41-18.16-.94-5.03-2.57-7.55-4.89-7.55v-.83h24.22v.83c-2.32 0-3.96 2.52-4.89 7.55-.94 5.03-1.41 11.09-1.41 18.16v79.62c0 7.08.47 13.13 1.41 18.16.94 5.03 2.57 7.55 4.89 7.55v.83H82.11v-.83Zm36.41-115.04c7.02-12.55 17.55-18.83 31.6-18.83s23.72 6.3 30.69 18.91c6.97 12.61 10.45 29.14 10.45 49.6 0 18.36-2.8 33.65-8.38 45.87-5.59 12.22-13.91 19.55-24.96 21.98 2.87.55 5.45 1.33 7.71 2.32 2.26.99 5.5 2.6 9.7 4.81 4.86 2.65 9.1 4.65 12.69 5.97 3.59 1.33 7.71 1.99 12.36 1.99 1.99 0 3.82-.39 5.47-1.16 1.66-.77 2.49-2.27 2.49-4.48H210c-.11 4.98-.91 9.1-2.4 12.36-1.5 3.26-4.56 4.89-9.21 4.89s-8.54-1.08-12.02-3.23c-3.48-2.16-7.61-5.39-12.36-9.71s-8.87-7.55-12.36-9.7c-3.48-2.16-7.44-3.24-11.86-3.24-13.93-.11-24.39-6.44-31.35-18.99-6.97-12.55-10.45-29.11-10.45-49.68s3.51-37.13 10.53-49.68Zm52.51 98.45c4.64-12.16 6.97-28.42 6.97-48.77s-2.35-36.44-7.05-48.6c-4.7-12.16-11.75-18.25-21.15-18.25s-16.78 6.08-21.48 18.25c-4.7 12.17-7.05 28.37-7.05 48.6s2.35 36.61 7.05 48.77c4.7 12.17 11.86 18.25 21.48 18.25s16.59-6.08 21.23-18.25Z" class="cls-1"/><path d="M198.39 199.18c0-7.08-.47-13.13-1.41-18.16-.94-5.03-2.57-7.55-4.89-7.55v-.83h24.22v.83c-2.32 0-3.95 2.52-4.89 7.55-.94 5.03-1.41 11.09-1.41 18.16v61.21c0 9.73.83 17.5 2.49 23.31 1.66 5.8 4.28 10.04 7.88 12.69 3.59 2.65 8.43 3.98 14.52 3.98 9.07 0 15.65-3.15 19.74-9.46 4.09-6.3 6.14-15.59 6.14-27.87v-45.62c0-14.6-1.72-25.57-5.14-32.93-3.43-7.35-8.24-11.03-14.43-11.03v-.83h27.54v.83c-2.43 0-4.09 3.37-4.98 10.12-.89 6.75-1.33 18.03-1.33 33.84v46.45c-.11 14.71-2.46 25.74-7.05 33.09-4.59 7.36-11.97 11.03-22.15 11.03-8.41 0-15.09-1.49-20.07-4.48-4.98-2.98-8.66-7.8-11.03-14.43-2.38-6.64-3.62-15.59-3.73-26.87v-63.03Zm97.38 34.01h2.49c-8.52-2.1-15.15-5.89-19.9-11.36-4.76-5.47-7.13-12.47-7.13-20.98 0-10.39 3.04-18.14 9.12-23.23 6.08-5.09 14.04-7.63 23.89-7.63 9.29 0 16.42 1.41 21.4 4.23 4.98 2.82 9.29 6.67 12.94 11.53l-3.32 14.43c-3.43-7.74-7.55-14.43-12.36-20.07-4.81-5.64-11.03-8.46-18.66-8.46-6.53 0-11.45 2.49-14.76 7.47-3.32 4.98-4.98 12.22-4.98 21.73 0 10.17 2.35 18.11 7.05 23.8 4.7 5.7 12.03 8.54 21.98 8.54h16.42v11.28h-.83c0-3.76-1.44-6.3-4.31-7.63-2.88-1.33-6.69-1.99-11.45-1.99h-1.33c-6.97 0-12.09 1-15.34 2.99-3.26 1.99-5.34 4.73-6.22 8.21-.89 3.48-1.33 8.32-1.33 14.52v18.25c0 7.52.83 13.55 2.49 18.08 1.66 4.54 5.14 6.8 10.45 6.8h9.79c4.98 0 9.26-.55 12.86-1.66 3.59-1.1 6.86-3.68 9.79-7.71 2.93-4.04 4.95-10.2 6.06-18.5h.83l-2.99 29.53h-67.18v-.83c2.32 0 3.95-2.52 4.89-7.55.94-5.03 1.41-11.08 1.41-18.16v-22.39c0-15.48 6.08-23.22 18.25-23.22Z" class="cls-1"/><path d="M308.35 54.91c-12.4 2.26-14.03 4.09-16.04 18-2.01-13.91-3.64-15.74-16.04-18 12.4-2.26 14.03-4.09 16.04-18 2.01 13.91 3.64 15.74 16.04 18Z" style="fill:#a481e9"/></g></svg>