<svg xmlns="http://www.w3.org/2000/svg" data-name="Layer 2" viewBox="0 0 63.77 73.33"><path d="M39.96 30.74c4.33-3.91 10.08-6.3 16.38-6.3C42.84 24.44 31.9 13.5 31.9 0c0 13.5-10.94 24.44-24.44 24.44a24.3 24.3 0 0 1 16.37 6.3c-.41.46-.83.91-1.27 1.35-5.78 5.78-13.75 9.34-22.55 9.34 8.81 0 16.77 3.57 22.55 9.34 5.76 5.77 9.33 13.75 9.33 22.55 0-8.81 3.57-16.78 9.34-22.55s13.75-9.34 22.54-9.34c-9.47 0-17.97-4.13-23.81-10.69Zm-.64 18.13c-4.59 4.59-7.43 10.93-7.43 17.93 0-7-2.84-13.34-7.43-17.93a25.248 25.248 0 0 0-17.93-7.44c7.67 0 14.53-3.41 19.18-8.79a24.373 24.373 0 0 1 6.18 16.24c0-6.23 2.34-11.92 6.18-16.23.4.46.81.92 1.25 1.35a25.287 25.287 0 0 0 17.94 7.43c-7.01 0-13.36 2.84-17.94 7.44Z" style="fill:#a580ff"/></svg>