<svg xmlns="http://www.w3.org/2000/svg" id="Layer_2" data-name="Layer 2" viewBox="0 0 97.9 84.63"><defs><style>.cls-1{fill:#a580ff}</style></defs><g id="adjectives"><path d="M0 44.73c0-15.49 21.96-28.09 48.95-28.09S97.9 29.24 97.9 44.73 75.94 72.82 48.95 72.82C21.96 72.82 0 60.22 0 44.73Zm.85 0c0 15.02 21.58 27.24 48.1 27.24s48.1-12.22 48.1-27.24-21.58-27.24-48.1-27.24S.85 29.71.85 44.73Z" class="cls-1"/><path d="M29.09 64.6C10 45.51 3.38 21.07 14.34 10.12 25.29-.84 49.73 5.78 68.81 24.87c19.09 19.09 25.7 43.52 14.75 54.48-3.58 3.58-8.61 5.29-14.43 5.29-11.95 0-27.21-7.2-40.05-20.04ZM14.94 10.72c-10.62 10.62-4 34.52 14.75 53.27s42.65 25.37 53.27 14.75c10.62-10.62 4-34.52-14.75-53.27S25.56.1 14.94 10.72Z" class="cls-1"/><path d="M29.44 11.19c.17 0 .2-1.82.56-2.58a5.176 5.176 0 0 1 2.72-2.57c.7-.29 2.32-.24 2.32-.45s-1.61-.15-2.3-.44a5.222 5.222 0 0 1-2.85-2.84c-.29-.7-.2-2.32-.45-2.32S29.28 1.61 29 2.3a5.199 5.199 0 0 1-2.63 2.75c-.74.34-2.52.36-2.52.53s1.7.17 2.42.49c1.13.5 2.02 1.34 2.56 2.43.39.78.44 2.67.61 2.67Zm18.88 64.95c.12 0 .14-1.25.39-1.77.38-.8 1.03-1.41 1.86-1.76.48-.2 1.59-.16 1.59-.3s-1.1-.11-1.57-.3a3.567 3.567 0 0 1-1.95-1.94c-.2-.48-.14-1.59-.3-1.59s-.11 1.11-.3 1.58c-.35.84-.98 1.5-1.8 1.88-.51.24-1.72.25-1.72.36s1.16.12 1.66.34c.77.34 1.38.92 1.75 1.66.27.53.3 1.83.42 1.83Z" class="cls-1"/></g></svg>